#define basic3_width 24
#define basic3_height 12
static unsigned char basic3_bits[] = {
	0x00,0x00,0x00,0x00,0x00,0x00,0x8f,0x38,0x39,0x91,0x44,0x45,0x51,0x05,0x05,0x4f,0x39,0x05,0xd1,0x41,0x05,0x31,0x46,0x45,0x2f,0x3a,0x39,0x00,0x00,0x00,0x00,0x00,0x00,0x00,0x00,0x00
};
