#define basic2_width 16
#define basic2_height 8
static unsigned char basic2_bits[] = {
	0x00,0x00,0x23,0x4b,0x55,0x29,0x73,0x2b,0x55,0x2a,0x53,0x4b,0x00,0x00,0x00,0x00
};
