#define basic1_width 8
#define basic1_height 4
static unsigned char basic1_bits[] = {
	0x63,0x27,0x45,0x67
};
