#define caps3_width 24
#define caps3_height 12
static unsigned char caps3_bits[] = {
	0x00,0x00,0x00,0x00,0x00,0x00,0x70,0xe4,0x39,0x88,0x24,0x46,0x08,0x2a,0x06,0x08,0xea,0x39,0x08,0x2e,0x40,0x88,0x31,0x44,0x70,0x31,0x38,0x00,0x00,0x00,0x00,0x00,0x00,0x00,0x00,0x00
};
