#define caps2_width 16
#define caps2_height 8
static unsigned char caps2_bits[] = {
	0x00,0x00,0x44,0x66,0xaa,0x2a,0xe2,0x66,0xaa,0x42,0xa4,0x62,0x00,0x00,0x00,0x00
};
