#define deg2_width 16
#define deg2_height 8
static unsigned char deg2_bits[] = {
	0x00,0x00,0x30,0x67,0x50,0x11,0x50,0x53,0x50,0x51,0x30,0x67,0x00,0x00,0x00,0x00
};
