#define deg3_width 24
#define deg3_height 12
static unsigned char deg3_bits[] = {
	0x00,0x00,0x00,0x00,0x00,0x00,0xc0,0xf3,0x39,0x40,0x14,0x44,0x40,0x14,0x04,0x40,0xf4,0x74,0x40,0x14,0x44,0x40,0x14,0x64,0xc0,0xf3,0x59,0x00,0x00,0x00,0x00,0x00,0x00,0x00,0x00,0x00
};
