#define dot2_width 2
#define dot2_height 8
static unsigned char dot2_bits[] = {
	0x00,0x00,0x00,0x01,0x00,0x00,0x00,0x00
};
