#define dot3_width 3
#define dot3_height 12
static unsigned char dot3_bits[] = {
	0x00,0x00,0x00,0x00,0x00,0x03,0x03,0x00,0x00,0x00,0x00,0x00
};
