#define gra2_width 16
#define gra2_height 8
static unsigned char gra2_bits[] = {
	0x00,0x00,0x60,0x23,0x10,0x55,0x50,0x73,0x50,0x55,0x60,0x55,0x00,0x00,0x00,0x00
};
