#define gra3_width 24
#define gra3_height 12
static unsigned char gra3_bits[] = {
	0x00,0x00,0x00,0x00,0x00,0x00,0x80,0xf3,0x10,0x40,0x14,0x11,0x40,0x10,0x29,0x40,0xf7,0x28,0x40,0x94,0x38,0x40,0x16,0x45,0x80,0x15,0x45,0x00,0x00,0x00,0x00,0x00,0x00,0x00,0x00,0x00
};
