#define rad2_width 16
#define rad2_height 8
static unsigned char rad2_bits[] = {
	0x00,0x00,0x30,0x32,0x50,0x55,0x30,0x57,0x50,0x55,0x50,0x35,0x00,0x00,0x00,0x00
};
