#define rad3_width 24
#define rad3_height 12
static unsigned char rad3_bits[] = {
	0x00,0x00,0x00,0x00,0x00,0x00,0xc0,0x43,0x3c,0x40,0x44,0x44,0x40,0xa4,0x44,0xc0,0xa3,0x44,0x40,0xe2,0x44,0x40,0x14,0x45,0x40,0x14,0x3d,0x00,0x00,0x00,0x00,0x00,0x00,0x00,0x00,0x00
};
