#define s2_width 16
#define s2_height 12
static unsigned char s2_bits[] = {
	0x00,0x00,0x80,0x7f,0x80,0x40,0x80,0x5c,0x80,0x42,0x80,0x4c,0x80,0x50,0x80,0x4e,0x80,0x40,0x80,0x7f,0x00,0x00,0x00,0x00
};
