#define s3_width 24
#define s3_height 18
static unsigned char s3_bits[] = {
	0x00,0x00,0x00,0x00,0x00,0x00,0x00,0x00,0x00,0x00,0xc0,0x7f,0x00,0x40,0x40,0x00,0x40,0x4e,0x00,0x40,0x51,0x00,0x40,0x41,0x00,0x40,0x4e,0x00,0x40,0x50,0x00,0x40,0x51,0x00,0x40,0x4e,0x00,0x40,0x40,0x00,0xc0,0x7f,0x00,0x00,0x00,0x00,0x00,0x00,0x00,0x00,0x00,0x00,0x00,0x00
};
